Coordinates
version=1
nRows=49
nColumns=12
inDegrees=yes

Units are S.I. units (second, meters, Newtons, ...)
Angles are in degrees

endheader
time	SC_y	SC_z	SC_x	AC_y	AC_z	AC_x	GH_y	GH_z	GH_yy	EL_x	PS_y
       0.0              -45.66          4.665          2.964          38.44          -5.87          13.13         -49.58         -4.172          116.5          26.34          43.24
   0.03345              -45.66          4.668          2.971          38.45         -5.871          13.13         -49.57         -4.161          116.5          26.35          43.25
   0.06689              -45.66          4.672          2.978          38.45         -5.872          13.13         -49.57         -4.149          116.5          26.37          43.27
    0.1003              -45.66          4.676          2.985          38.46         -5.872          13.13         -49.56         -4.137          116.5          26.39          43.28
    0.1338              -45.66          4.679          2.993          38.46         -5.873          13.13         -49.56         -4.124          116.4           26.4           43.3
    0.1672              -45.66          4.684          3.001          38.46         -5.874          13.13         -49.55          -4.11          116.4          26.42          43.32
    0.2007              -45.66          4.688           3.01          38.47         -5.875          13.13         -49.54         -4.096          116.4          26.44          43.34
    0.2341              -45.66          4.693          3.019          38.47         -5.876          13.13         -49.54          -4.08          116.4          26.46          43.36
    0.2676              -45.66          4.698          3.029          38.48         -5.877          13.13         -49.53         -4.063          116.3          26.48          43.38
     0.301              -45.66          4.703           3.04          38.49         -5.878          13.13         -49.52         -4.045          116.3          26.51           43.4
    0.3345              -45.66          4.709          3.051          38.49         -5.879          13.14         -49.52         -4.025          116.2          26.53          43.43
    0.3679              -45.66          4.715          3.064           38.5          -5.88          13.14         -49.51         -4.004          116.2          26.56          43.46
    0.4014              -45.66          4.722          3.077          38.51         -5.882          13.14          -49.5         -3.982          116.2          26.59          43.49
    0.4348              -45.66           4.73          3.092          38.51         -5.883          13.14         -49.49         -3.957          116.1          26.62          43.52
    0.4683              -45.66          4.737          3.108          38.52         -5.885          13.14         -49.48         -3.931          116.1          26.66          43.56
    0.5017              -45.66          4.746          3.125          38.53         -5.886          13.14         -49.47         -3.902          116.0           26.7          43.59
    0.5351              -45.66          4.755          3.143          38.54         -5.888          13.14         -49.45         -3.871          115.9          26.74          43.63
    0.5686              -45.66          4.766          3.163          38.55          -5.89          13.14         -49.44         -3.837          115.9          26.78          43.68
     0.602              -45.65          4.777          3.185          38.57         -5.892          13.14         -49.42           -3.8          115.8          26.83          43.73
    0.6355              -45.65          4.789           3.21          38.58         -5.895          13.14         -49.41         -3.759          115.7          26.88          43.78
    0.6689              -45.65          4.802          3.236          38.59         -5.898          13.15         -49.39         -3.715          115.6          26.94          43.84
    0.7024              -45.65          4.817          3.265          38.61           -5.9          13.15         -49.37         -3.666          115.5          27.01          43.91
    0.7358              -45.65          4.833          3.298          38.63         -5.904          13.15         -49.35         -3.612          115.4          27.08          43.98
    0.7693              -45.65          4.851          3.333          38.65         -5.907          13.15         -49.32         -3.552          115.3          27.16          44.06
    0.8027              -45.65          4.871          3.373          38.67         -5.911          13.15         -49.29         -3.485          115.2          27.25          44.14
    0.8362              -45.65          4.894          3.417           38.7         -5.916          13.16         -49.26         -3.411          115.0          27.34          44.24
    0.8696              -45.64          4.919          3.467          38.72         -5.921          13.16         -49.23         -3.327          114.9          27.45          44.35
    0.9031              -45.64          4.947          3.523          38.75         -5.926          13.16         -49.19         -3.233          114.7          27.58          44.48
    0.9365              -45.64          4.979          3.586          38.79         -5.933          13.17         -49.15         -3.127          114.5          27.72          44.62
      0.97              -45.64          5.015          3.657          38.83          -5.94          13.17          -49.1         -3.007          114.2          27.87          44.78
     1.003              -45.63          5.056          3.739          38.87         -5.948          13.18         -49.04          -2.87          113.9          28.06          44.96
     1.037              -45.63          5.103          3.833          38.93         -5.957          13.18         -48.98         -2.712          113.6          28.26          45.16
      1.07              -45.63          5.158          3.941          38.99         -5.968          13.19          -48.9          -2.53          113.3           28.5          45.41
     1.104              -45.62          5.221          4.067          39.06         -5.981           13.2         -48.81         -2.318          112.8          28.78          45.68
     1.137              -45.62          5.295          4.214          39.14         -5.996           13.2         -48.71         -2.071          112.4          29.11          46.01
     1.171              -45.61          5.383          4.388          39.23         -6.013          13.21         -48.59         -1.779          111.8          29.49           46.4
     1.204               -45.6          5.487          4.594          39.35         -6.034          13.23         -48.45         -1.433          111.1          29.95          46.85
     1.238              -45.59          5.612          4.841          39.49         -6.059          13.24         -48.28         -1.017          110.3           30.5           47.4
     1.271              -45.58          5.762           5.14          39.65         -6.089          13.26         -48.07        -0.5145          109.3          31.16          48.07
     1.304              -45.57          5.947          5.506          39.85         -6.126          13.28         -47.82         0.0996          108.0          31.97          48.88
     1.338              -45.55          6.174          5.957           40.1         -6.171          13.31         -47.51         0.8575          106.5          32.97          49.88
     1.371              -45.53          6.458          6.519          40.42         -6.227          13.34         -47.12          1.803          104.6          34.21          51.13
     1.405              -45.51          6.815          7.228          40.81         -6.299          13.38         -46.63          2.993          102.3          35.78           52.7
     1.438              -45.47          7.269          8.128          41.31         -6.389          13.44          -46.0          4.507          99.27          37.77           54.7
     1.472              -45.43           7.85          9.281          41.95         -6.505           13.5         -45.21          6.444          95.41          40.33          57.26
     1.505              -45.38          8.596          10.76          42.77         -6.654          13.59         -44.18           8.93          90.47           43.6          60.54
     1.539              -45.31          9.549          12.65          43.82         -6.844           13.7         -42.87          12.11          84.15          47.79          64.73
     1.572              -45.22          10.75          15.03          45.14         -7.082          13.84         -41.23           16.1           76.2          53.05          70.01
     1.605              -45.12          12.21          17.92          46.75         -7.373          14.02         -39.23          20.96          66.52          59.46          76.43
